<svg xmlns="http://www.w3.org/2000/svg"  viewBox="0 0 48 48" width="48px" height="48px"><path fill="none" stroke="#919191" stroke-linejoin="round" stroke-miterlimit="10" stroke-width="3" d="M34.5,40.5h-21 c-3.314,0-6-2.686-6-6v-21c0-3.314,2.686-6,6-6h21c3.314,0,6,2.686,6,6v21C40.5,37.814,37.814,40.5,34.5,40.5z"/><path d="M34.5,7.5h-21c-3.31,0-6,2.69-6,6V20h10.17c1.32-2.11,3.66-3.5,6.33-3.5s5.01,1.39,6.33,3.5H40.5v-6.5 C40.5,10.19,37.81,7.5,34.5,7.5z M34.5,15h-3c-0.83,0-1.5-0.67-1.5-1.5c0-0.83,0.67-1.5,1.5-1.5h3c0.83,0,1.5,0.67,1.5,1.5 C36,14.33,35.33,15,34.5,15z"/><circle cx="24" cy="24" r="7.5" fill="none" stroke="#919191" stroke-linejoin="round" stroke-miterlimit="10" stroke-width="3"/></svg>